<mxfile host="app.diagrams.net" modified="2023-10-16T00:35:28.899Z" agent="Mozilla/5.0 (Windows NT 10.0; Win64; x64) AppleWebKit/537.36 (KHTML, like Gecko) Chrome/118.0.0.0 Safari/537.36 Edg/118.0.2088.46" version="22.0.4" etag="CwO_6YFo3iJe88-dDPe9" type="github">
  <diagram name="Page-1" id="IgIUSaTHxPAZQ-OasYTc">
    <mxGraphModel>
      <root>
        <mxCell id="0" />
        <mxCell id="1" parent="0" />
      </root>
    </mxGraphModel>
  </diagram>
</mxfile>
